<svg width="64" height="64" viewBox="0 0 64 64" fill="none" xmlns="http://www.w3.org/2000/svg">
<path d="M32.0002 61.3333C15.7986 61.3333 2.66667 48.2013 2.66667 32.0002C2.66667 15.7986 15.7986 2.66667 32.0002 2.66667C48.2013 2.66667 61.3333 15.7986 61.3333 32.0002C61.3333 48.2014 48.2014 61.3333 32.0002 61.3333Z" fill="#FF6699" stroke="white" stroke-width="5.33333"/>
<path d="M46.6262 22.731V22.7199H35.8032C35.8734 21.8558 35.914 20.9807 35.914 20.0982C35.914 19.1122 35.866 18.1337 35.7774 17.1699C35.7811 17.1072 35.7885 17.0444 35.7885 16.9779V16.9669C35.7885 14.9581 34.16 13.3333 32.1549 13.3333C30.1462 13.3333 28.5214 14.9618 28.5214 16.9669V16.9779C28.5214 17.2253 28.5473 17.469 28.5953 17.7017L28.5436 17.7091C28.6174 18.4956 28.6581 19.2895 28.6581 20.0945C28.6581 20.9807 28.6101 21.8558 28.5214 22.7162H17.392V22.731C15.4977 22.8528 13.9948 24.4259 13.9948 26.3534V26.3645C13.9948 28.3733 15.5346 29.9832 17.5397 29.9832C17.6948 29.9832 17.8535 29.9906 18.1046 29.9869L26.6124 29.9685C24.4559 34.9535 20.7153 39.0892 16.0294 41.7441C16.0072 41.7552 15.9888 41.7663 15.9666 41.7811C15.9149 41.8106 15.8669 41.8401 15.8152 41.8697L15.8189 41.8734C14.7961 42.5159 14.1129 43.6532 14.1129 44.9493V44.9604C14.1129 46.9692 15.7414 48.5939 17.7465 48.5939C18.5256 48.5939 19.242 48.3465 19.8328 47.9329C26.6604 43.9892 31.9002 37.6047 34.3631 29.9759H46.0428C46.2311 29.9795 46.5117 29.9685 46.5117 29.9685C48.6941 29.9242 50.1268 28.3807 50.1268 26.3756V26.3645C50.1305 24.3963 48.5722 22.8011 46.6262 22.731Z" fill="white"/>
<path d="M49.5283 43.2251C49.5209 43.2104 49.5098 43.1993 49.5024 43.1882C49.3769 42.963 49.2292 42.7562 49.063 42.5642C46.7182 39.2408 43.7678 36.3791 40.3596 34.1524L40.3559 34.1561C39.7614 33.7278 39.0302 33.473 38.2437 33.473C36.2349 33.473 34.6102 35.1014 34.6102 37.1065V37.1176C34.6102 38.4912 35.3746 39.6876 36.5008 40.3043C39.418 42.2318 41.7997 44.44 43.6829 47.3904L43.8786 47.6378C44.5248 48.2286 45.3815 48.5942 46.3268 48.5942C48.3356 48.5942 49.9603 46.9657 49.9603 44.9606V44.9496C49.9566 44.3255 49.8015 43.7384 49.5283 43.2251Z" fill="white"/>
</svg>
